Patient4_TMGait_0pt6_02_left_07_EMG.mot
version=1
nRows=37
nColumns=33
inDegrees=no
endheader
time	1LAddLong	2LGlutMax	3LGlutMed	4LIliopsoas	5LSemiMemb	6LBicFemLong	7LRecFem	8LVastMed	9LVastLat	10LGasMed	11LTibAnt	12lTibPost	13LPeroneusLong	14LSol	15LExtDigLong	16LFlexDigLong	17RAddLong	18RGlutMax	19RGlutMed	20RIliopsoas	21RSemiMemb	22RBicFemLong	23RRecFem	24RVastMed	25RVastLat	26RGasMed	27RTibAnt	28RTibPost	29RPeroneusLong	30RSol	31RExtDigLong	32RFlexDigLong
9.34	0.007172	0.070496	-0.034027	0.006714	-0.005798	0.18784	-0.15228	0.00824	-0.045013	0.13077	0.019226	-0.005341	-0.032349	0.33539	0.090027	-0.44281	0.070038	-0.007019	-0.020752	0.13916	-0.11353	-0.019989	-0.29663	-0.13031	0.030518	-0.016785	0.12192	-0.002594	-0.62286	0.04837	-0.003662	-0.00885
9.341	0.016937	0.041962	0.007172	0.003357	-0.018005	0.03479	-0.16541	0.00351	-0.047455	-0.12528	0.017242	-0.030212	0.043182	0.23834	0.061646	0.27054	0.03006	-0.038757	-0.22751	-0.002594	-0.19486	0.043335	-0.41397	-0.11185	-0.009308	-0.00824	-0.008392	-0.001831	0.20325	0.054169	-0.00412	-0.007019
9.342	0.009613	0.057678	0.029144	-0.001221	-0.009155	-0.28717	-0.16495	0.005951	-0.034637	0.000305	0.013733	-0.002899	0.028076	-0.018158	0.005188	-0.52292	0.020905	-0.000916	-0.31784	-0.084686	-0.40802	0.075531	-0.24826	-0.085602	-0.017242	-0.016785	-0.12878	-0.002289	0.73929	0.056152	-0.005341	-0.010529
9.343	0.018616	0.076599	0.035095	0.001068	-0.013275	-0.4248	-0.16342	-0.000458	-0.027466	0.36575	0.001373	-0.003052	0.016479	-0.16632	-0.06134	-0.52811	0.024567	0.034332	-0.33142	-0.053101	-0.056763	0.21606	-0.13763	0.068207	-0.051117	-0.022583	-0.017395	0.006561	0.063934	0.007324	-0.00351	-0.010376
9.344	0.016632	0.060425	0.036316	-0.00061	0.016174	-0.11795	-0.12543	0.009766	-0.058289	0.47745	0.009003	0.02533	0.020905	0.070953	-0.050659	0.39902	-0.064392	0.084686	-0.54535	0.007935	0.23102	0.23239	-0.24704	0.064087	-0.088806	-0.006714	-0.060425	-0.009003	-0.44189	-0.031128	0	-0.010681
9.345	0.007019	0.07019	-0.007782	-0.000458	0.03006	0.19669	-0.088348	0.014801	-0.080414	0.67246	0.013733	0.00351	0.007172	0.30182	-0.046082	0.23514	-0.0737	0.13168	-0.38361	0.068054	0.29098	0.15198	-0.22888	0.16922	-0.02182	-0.005493	-0.21027	0	-0.30045	-0.07309	-0.003815	-0.007782
9.346	0.007019	0.07782	0.007629	0.010223	0.028992	0.14984	-0.071259	0.013733	-0.08194	1.1591	0.006104	0.000153	-0.024414	0.57434	-0.032349	0.13641	-0.030975	0.10483	-0.1799	0.02243	0.40573	0.11551	-0.088196	0.054016	0.036469	-0.002136	-0.38116	-0.00351	0.89752	-0.10666	0	-0.007324
9.347	0.000153	0.061798	0.062561	0.005035	-0.010681	0.24674	-0.066071	0.001373	-0.074768	0.81543	0.004272	0.013275	-0.027161	0.53467	0.014343	-0.001373	0.013885	0.062866	0.054932	-0.044403	0.17807	0.032196	0.078125	-0.093842	-0.099182	-0.010376	-0.12589	-0.004883	0.27969	0.011292	-0.004272	-0.009766
9.348	-0.000916	0.052338	0.16663	0.011139	-0.016022	0.47745	-0.10223	0.044556	-0.089569	0.004578	-0.005035	0.0177	-0.005798	0.050507	0.024719	-0.040436	0.03952	0.09552	0.040283	-0.089417	0.080109	-0.029449	0.17807	-0.14313	-0.23163	-0.011597	0.13001	0.000763	-0.33402	0.05661	-0.001831	-0.008392
9.349	0.002747	0.10941	0.159	-0.011902	-0.070038	0.44159	-0.1181	0.005188	-0.093689	0.080109	-0.014496	0.007477	0.002441	-0.15595	0.007782	-0.23758	0.027008	0.2179	-0.099182	-0.091858	0.070801	-0.068817	0.18036	-0.094299	0.039978	-0.007477	0.19913	0.000458	-0.78919	0.02655	0.000153	-0.025482
9.35	0.010681	0.0354	0.15869	-0.000916	-0.10407	0.3212	-0.09201	0.001678	-0.048218	0.23102	0.003967	0.011749	-0.035095	-0.23025	0.021973	-0.026855	-0.028076	0.19012	0.072174	-0.005188	0.24353	-0.045471	0.065308	-0.037384	0.2301	-0.008087	0.076599	-0.00061	-0.37827	0.087433	-0.001373	-0.009308
9.351	0.012817	0.019531	0.1532	0	0.002289	-0.084229	-0.09964	0.008545	-0.052643	-0.067596	0.010223	-0.005493	-0.049744	-0.11139	0.024872	0.16159	-0.038452	0.15198	0.028992	0.038452	0.27527	0.044098	-0.10361	-0.04303	0.33218	-0.012054	-0.066376	0.005035	0.15213	0.065918	0.001831	-0.00946
9.352	0.013123	0.001068	0.16098	0.009613	0.11429	-0.058136	-0.081177	0.012817	-0.093689	-0.55191	0.015411	0.002899	-0.024261	0.003815	0.00824	0.056	-0.020599	-0.027313	-0.17532	0.099182	0.10407	0.15366	-0.41092	-0.051117	1.0243	-0.007172	-0.16556	0.002441	0.5365	-0.059204	-0.003662	-0.011749
9.353	0.00885	0.052032	0.17029	0.009308	0.10269	0.22705	-0.13382	0.01709	-0.1033	-0.73898	0.009613	-0.005951	0.018158	0.086212	0.04303	-0.003815	-0.021057	-0.10056	-0.37766	0.10269	-0.040588	0.25696	-0.45258	-0.20401	1.0091	-0.001831	-0.12283	0.00061	0.52689	-0.030518	-0.00061	-0.007324
9.354	-0.003204	0.065918	0.1619	0.00885	0.055542	-0.01297	-0.17899	0.022888	-0.081635	-0.67123	-0.000305	0.006561	0.037537	-0.056458	0.041962	-0.015717	0.000458	-0.046539	-0.31326	0.090027	-0.16312	0.17944	-0.38849	-0.3241	0.51193	-0.00824	0.037231	0.002747	0.36041	0.009308	-0.00351	-0.002441
9.355	0.004272	0.065155	0.22827	-0.011902	-0.028839	-0.062256	-0.13504	0.013275	-0.057831	-0.68527	-0.009003	0.002899	0.048676	-0.15213	0.032501	-0.014954	0.062561	-0.075684	-0.17899	0.065155	-0.076752	0.04303	-0.22171	-0.36667	0.031891	-0.012054	0.2092	-0.000458	0.090179	0.012054	0	-0.005646
9.356	0.007172	0.090637	0.24689	0.003967	-0.057678	0.11093	-0.12955	0.008392	-0.037689	-0.27786	-0.000916	-0.005951	0.053406	-0.19196	0.02594	-0.069275	0.067749	-0.16388	-0.32074	0.032654	0.076447	-0.014038	-0.18173	-0.50552	-0.23834	-0.006256	0.18982	0.004578	0.21027	0.006256	0	-0.011902
9.357	0.008545	0.14572	0.21133	0.001831	-0.095825	-0.050201	-0.10803	0.000458	-0.002136	0.54352	0.011292	-0.047607	0.044098	-0.040588	0.016174	-0.081329	0.076904	-0.14221	-0.27786	-0.040283	0.10284	-0.13794	-0.12222	-0.45975	-0.33676	-0.006561	0.22415	-0.000763	0.14999	0.055237	0.003357	-0.009766
9.358	0.016479	0.16235	0.19714	0.011902	0.010529	-0.16373	-0.074921	0.005951	0.003204	0.80826	0.007019	0.033417	0.064087	0.093994	-0.005341	-0.071411	0.12497	-0.21851	-0.45471	-0.040894	0.18112	-0.32745	-0.011902	-0.43991	-0.40253	-0.012512	0.22369	-0.000153	0.056915	0.030823	-0.002747	-0.009766
9.359	0.00885	0.18631	0.19394	0.006409	0.024414	-0.13565	-0.061493	0.010071	-0.02655	0.99884	0.008392	0.045013	0.072784	0.005493	-0.022278	-0.05127	0.12344	-0.23666	-0.32516	-0.011902	0.1564	-0.37125	0.032959	-0.37735	-0.42709	0.00412	0.046539	0.002899	0.050659	-0.015869	-0.006104	-0.013885
9.36	0.006561	0.1561	0.19119	0.001068	-0.03067	-0.018311	-0.10269	0.002594	-0.040283	0.71411	0.00824	0.14618	0.074768	0.077667	-0.029755	0.011292	0.071411	-0.32379	-0.23651	-0.040283	-0.19852	-0.25681	-0.019531	-0.35843	-0.35965	-0.004272	-0.0177	-0.000153	-0.10178	-0.064545	-0.003662	-0.009155
9.361	-0.000763	0.11337	0.27649	0.014801	-0.068207	0.033722	-0.1506	0.010223	-0.016174	-0.73227	0.004578	0.02182	0.035858	0.26215	-0.027313	0.010223	0.002594	-0.28702	-0.21774	-0.001984	-0.42694	0.029602	-0.037842	-0.19531	-0.15457	0.002747	0.081329	0.00412	-0.1738	-0.05249	-0.001373	-0.011139
9.362	0.000916	0.14328	0.23895	0.002747	-0.072021	-0.1889	-0.096893	0.004883	-0.048523	-1.2013	-0.004425	-0.2092	-0.021362	0.044098	-0.044556	0.020294	-0.10147	-0.33402	-0.32455	0.009766	-0.43716	0.27283	-0.11276	0.16083	-0.093231	0.001678	0.099945	0.004578	-0.35416	-0.098724	-0.002899	-0.016937
9.363	-0.004425	0.15549	0.21393	0.000916	-0.11841	-0.21286	-0.075989	0.01358	-0.065308	-0.73746	0.008087	0.25696	-0.072632	-0.009766	-0.061798	0.00946	-0.17059	-0.28549	-0.31937	-0.068817	-0.054016	0.30533	-0.17761	0.42816	-0.10437	0.007629	0.24994	0.001526	-0.22919	-0.064545	-0.003967	-0.022736
9.364	0.008698	0.18402	0.30579	0.006104	-0.002899	0.040894	-0.097351	0.014648	-0.059204	-0.53802	0.006866	-0.12405	-0.066376	0.010681	-0.068359	-0.011292	-0.093994	-0.29221	-0.47897	-0.088806	-0.070801	0.073395	-0.10757	0.77026	-0.28961	-0.00351	0.44388	0.002747	-0.13794	-0.060272	0.001678	-0.02655
9.365	0.009308	0.13321	0.3006	-0.010529	0.098877	0.20737	-0.09552	0.013275	-0.041809	-0.31647	0.015869	0.063782	-0.032501	0.005951	-0.037842	-0.13779	0.02533	-0.39322	-0.50186	-0.054016	0.19134	-0.093842	-0.055695	0.69931	-0.2948	-0.010681	0.37781	0.002289	0.022888	-0.058136	0.000763	-0.015869
9.366	0.013275	0.15213	0.28809	0.006409	0.062714	0.13382	-0.10071	-0.002747	-0.010986	-0.19424	0.007935	0.027161	-0.012512	0.013123	-0.022583	0.081024	0.07309	-0.40955	-0.51895	0.069733	0.34302	-0.066071	-0.088654	0.31311	0.037537	-0.012512	0.31036	0.000153	0.1265	-0.1091	-0.005188	-0.019073
9.367	0.026855	0.20584	0.26306	-0.001831	0.068207	-0.39139	-0.11017	-0.007324	-0.018921	-0.15686	0.000458	-0.011139	-0.011444	0.050964	-0.014954	0.021667	0.057678	-0.29083	-0.63553	0.15289	0.19394	0.10346	-0.086212	0.058746	0.50797	-0.006714	-0.1886	0.003662	-0.067139	-0.16571	0.002441	-0.013733
9.368	0.018768	0.20584	0.25589	-0.015106	0.070496	-0.64072	-0.072937	-0.00061	-0.058594	-0.18021	0.008698	-0.026398	-0.02121	0.021515	0.009003	-0.28763	0.00061	-0.28275	-0.59006	0.1236	0.042877	0.13534	0.020599	-0.11032	0.90653	0.003052	-0.31555	0.00473	-0.36484	-0.16403	0	-0.011597
9.369	0.015106	0.22888	0.25726	0.003967	0.066223	-0.49118	-0.065918	0.00351	-0.054626	-0.19547	0.010834	-0.021973	-0.019531	0.06485	0.02655	0.33875	-0.028992	-0.32761	-0.48569	0.090942	0.021515	0.025787	-0.12741	-0.31418	0.77789	0.004272	0.15732	0.005951	-0.1767	-0.23499	-0.00351	-0.00824
9.37	0.010986	0.18188	0.26459	0.005951	0.036469	-0.28107	-0.092926	-0.00351	-0.023346	-0.17853	0.001526	-0.018921	-0.018005	0.083313	0.027008	0.15274	-0.031281	-0.3183	-0.58289	0.045929	-0.23697	0.06546	-0.25726	-0.48691	0.27374	0.004578	0.45242	0.000153	-0.068665	-0.20081	-0.004272	-0.000458
9.371	0.017395	0.17822	0.26703	-0.007019	0.00824	-0.081024	-0.10651	0.001984	-0.016174	-0.16235	0.007324	0.004578	-0.026093	-0.021057	0.02182	0.012817	-0.079803	-0.26428	-0.43854	0.010681	-0.10895	0.03418	-0.18387	-0.47806	-0.13916	-0.000305	-0.097961	-0.001373	-0.05249	-0.072021	-0.004578	-0.007019
9.372	0.010986	0.20554	0.26627	-0.003357	0.008087	0.13962	-0.087738	0.014801	-0.00885	-0.12711	0.006561	-0.005341	-0.00061	0.004272	0.016632	-0.025787	-0.005493	-0.24292	-0.36591	-0.059357	0.11047	-0.077362	-0.004578	-0.65613	-0.44434	-0.007629	-0.50049	-0.002441	0.27145	0.023804	-0.002899	-0.007172
9.373	0.009155	0.20325	0.26413	-0.009766	-0.001526	0.22705	-0.1062	0.000916	-0.016937	-0.0737	0.008392	-0.015564	0.010529	0.14023	0.018463	-0.02121	0.011139	-0.2832	-0.57129	-0.036774	0.17822	-0.037231	0.071869	-0.35202	-0.37552	0.003967	-0.90073	0.00351	0.41992	0.009155	-0.001373	-0.004272
9.374	0.007477	0.23163	0.25192	0.020752	0.005646	0.31815	-0.10284	0.007629	-0.025024	0	0.006714	-0.030518	0.010986	0.15533	0.007172	-0.020447	-0.022736	-0.24796	-0.56595	0.00885	0.23209	-0.007629	0.10407	-0.045319	-0.15854	-0.000458	-0.81039	0.003815	-0.19455	0.057373	-0.005493	-0.010071
9.375	0.019379	0.26184	0.24277	0.034027	0.003967	0.37308	-0.10696	-0.001068	-0.0177	0.14008	0.003815	-0.018768	0.014801	0.15137	-0.002594	-0.0177	-0.005188	-0.1915	-0.23804	-0.000305	0.30319	-0.12314	-0.008698	0.16861	-0.098114	0.001526	-0.44739	0.001221	-0.42862	0.056152	-0.005341	-0.007019
9.376	0.024261	0.26306	0.22369	0.018311	-0.057068	0.37598	-0.13626	0.000763	-0.005035	0.18845	0.009003	-0.011902	-0.005341	0.072327	0.002747	-0.018616	-0.006866	-0.22415	-0.026245	-0.063477	0.4982	-0.048828	-0.14191	0.30716	-0.099335	0.000153	-0.19043	-0.00061	0.08316	0.041962	-0.000763	-0.009308
